<svg viewBox="0 0 1000 700" xmlns="http://www.w3.org/2000/svg">
  <!-- 배경 -->
  <rect x="0" y="0" width="1000" height="700" fill="#fefefe" />
  
  <!-- 제목 -->
  <text x="500" y="40" font-family="Arial, sans-serif" font-size="28" font-weight="bold" text-anchor="middle" fill="#1e40af">네이버그리드 효과 인포그래픽</text>
  <text x="500" y="65" font-family="Arial, sans-serif" font-size="16" text-anchor="middle" fill="#64748b">1년간 중간 규모 커뮤니티(2,000세대) 운영 기준</text>
  
  <!-- 환경 효과 섹션 -->
  <rect x="50" y="90" width="280" height="260" fill="#f0fdf4" stroke="#22c55e" stroke-width="3" rx="15" ry="15" />
  <text x="190" y="125" font-family="Arial, sans-serif" font-size="20" font-weight="bold" text-anchor="middle" fill="#166534">🌍 환경 효과</text>
  
  <!-- 전자폐기물 감소 -->
  <circle cx="120" cy="180" r="35" fill="#dcfce7" stroke="#22c55e" stroke-width="3" />
  <text x="120" y="165" font-family="Arial, sans-serif" font-size="24" font-weight="bold" text-anchor="middle" fill="#166534">18</text>
  <text x="120" y="185" font-family="Arial, sans-serif" font-size="12" font-weight="bold" text-anchor="middle" fill="#166534">톤</text>
  <text x="120" y="200" font-family="Arial, sans-serif" font-size="10" text-anchor="middle" fill="#166534">전자폐기물</text>
  <text x="120" y="215" font-family="Arial, sans-serif" font-size="10" text-anchor="middle" fill="#166534">감소</text>
  
  <!-- 트럭 아이콘 -->
  <rect x="190" y="160" width="40" height="20" fill="#ef4444" rx="3" ry="3" />
  <circle cx="200" cy="185" r="6" fill="#1f2937" />
  <circle cx="220" cy="185" r="6" fill="#1f2937" />
  <rect x="230" y="165" width="15" height="15" fill="#ef4444" />
  <text x="190" y="210" font-family="Arial, sans-serif" font-size="10" text-anchor="middle" fill="#64748b">폐기물 트럭</text>
  <text x="190" y="225" font-family="Arial, sans-serif" font-size="10" text-anchor="middle" fill="#64748b">1.8대 절약</text>
  
  <!-- CO2 절약 -->
  <circle cx="120" cy="280" r="35" fill="#dcfce7" stroke="#22c55e" stroke-width="3" />
  <text x="120" y="265" font-family="Arial, sans-serif" font-size="24" font-weight="bold" text-anchor="middle" fill="#166534">6.3</text>
  <text x="120" y="285" font-family="Arial, sans-serif" font-size="12" font-weight="bold" text-anchor="middle" fill="#166534">톤</text>
  <text x="120" y="300" font-family="Arial, sans-serif" font-size="10" text-anchor="middle" fill="#166534">CO₂ 절약</text>
  
  <!-- 나무 아이콘 -->
  <rect x="195" y="255" width="5" height="25" fill="#92400e" />
  <circle cx="197" cy="250" r="12" fill="#22c55e" />
  <text x="220" y="270" font-family="Arial, sans-serif" font-size="10" text-anchor="middle" fill="#64748b">소나무 220그루</text>
  <text x="220" y="285" font-family="Arial, sans-serif" font-size="10" text-anchor="middle" fill="#64748b">심는 효과</text>
  
  <!-- 사회 효과 섹션 -->
  <rect x="360" y="90" width="280" height="260" fill="#f0f9ff" stroke="#3b82f6" stroke-width="3" rx="15" ry="15" />
  <text x="500" y="125" font-family="Arial, sans-serif" font-size="20" font-weight="bold" text-anchor="middle" fill="#1e40af">👥 사회 효과</text>
  
  <!-- 디지털 접근성 -->
  <circle cx="430" cy="180" r="35" fill="#dbeafe" stroke="#3b82f6" stroke-width="3" />
  <text x="430" y="165" font-family="Arial, sans-serif" font-size="20" font-weight="bold" text-anchor="middle" fill="#1e40af">1,800</text>
  <text x="430" y="185" font-family="Arial, sans-serif" font-size="12" font-weight="bold" text-anchor="middle" fill="#1e40af">명</text>
  <text x="430" y="200" font-family="Arial, sans-serif" font-size="10" text-anchor="middle" fill="#1e40af">디지털 접근</text>
  <text x="430" y="215" font-family="Arial, sans-serif" font-size="10" text-anchor="middle" fill="#1e40af">개선</text>
  
  <!-- 컴퓨터 아이콘 -->
  <rect x="500" y="160" width="30" height="20" fill="#6366f1" rx="2" ry="2" />
  <rect x="505" y="165" width="20" height="15" fill="#ddd6fe" />
  <rect x="510" y="180" width="10" height="5" fill="#6366f1" />
  <text x="515" y="210" font-family="Arial, sans-serif" font-size="10" text-anchor="middle" fill="#64748b">균등한 접근</text>
  
  <!-- 교육 혜택 -->
  <circle cx="430" cy="280" r="35" fill="#dbeafe" stroke="#3b82f6" stroke-width="3" />
  <text x="430" y="265" font-family="Arial, sans-serif" font-size="24" font-weight="bold" text-anchor="middle" fill="#1e40af">600</text>
  <text x="430" y="285" font-family="Arial, sans-serif" font-size="12" font-weight="bold" text-anchor="middle" fill="#1e40af">명</text>
  <text x="430" y="300" font-family="Arial, sans-serif" font-size="10" text-anchor="middle" fill="#1e40af">교육 혜택</text>
  
  <!-- 책 아이콘 -->
  <rect x="500" y="260" width="25" height="15" fill="#f59e0b" rx="2" ry="2" />
  <rect x="502" y="262" width="21" height="2" fill="#fbbf24" />
  <rect x="502" y="267" width="21" height="2" fill="#fbbf24" />
  <rect x="502" y="272" width="21" height="2" fill="#fbbf24" />
  <text x="512" y="300" font-family="Arial, sans-serif" font-size="10" text-anchor="middle" fill="#64748b">학습 기회</text>
  
  <!-- 경제 효과 섹션 -->
  <rect x="670" y="90" width="280" height="260" fill="#fffbeb" stroke="#f59e0b" stroke-width="3" rx="15" ry="15" />
  <text x="810" y="125" font-family="Arial, sans-serif" font-size="20" font-weight="bold" text-anchor="middle" fill="#92400e">💰 경제 효과</text>
  
  <!-- 절약 비용 -->
  <circle cx="740" cy="180" r="35" fill="#fef3c7" stroke="#f59e0b" stroke-width="3" />
  <text x="740" y="165" font-family="Arial, sans-serif" font-size="20" font-weight="bold" text-anchor="middle" fill="#92400e">5.4</text>
  <text x="740" y="185" font-family="Arial, sans-serif" font-size="12" font-weight="bold" text-anchor="middle" fill="#92400e">억원</text>
  <text x="740" y="200" font-family="Arial, sans-serif" font-size="10" text-anchor="middle" fill="#92400e">주민 절약</text>
  <text x="740" y="215" font-family="Arial, sans-serif" font-size="10" text-anchor="middle" fill="#92400e">비용</text>
  
  <!-- 동전 아이콘 -->
  <circle cx="820" cy="180" r="15" fill="#fbbf24" stroke="#f59e0b" stroke-width="2" />
  <text x="820" y="186" font-family="Arial, sans-serif" font-size="16" font-weight="bold" text-anchor="middle" fill="#92400e">₩</text>
  <text x="820" y="210" font-family="Arial, sans-serif" font-size="10" text-anchor="middle" fill="#64748b">가구당 연간</text>
  <text x="820" y="225" font-family="Arial, sans-serif" font-size="10" text-anchor="middle" fill="#64748b">90만원 절약</text>
  
  <!-- 일자리 창출 -->
  <circle cx="740" cy="280" r="35" fill="#fef3c7" stroke="#f59e0b" stroke-width="3" />
  <text x="740" y="265" font-family="Arial, sans-serif" font-size="24" font-weight="bold" text-anchor="middle" fill="#92400e">15</text>
  <text x="740" y="285" font-family="Arial, sans-serif" font-size="12" font-weight="bold" text-anchor="middle" fill="#92400e">개</text>
  <text x="740" y="300" font-family="Arial, sans-serif" font-size="10" text-anchor="middle" fill="#92400e">일자리 창출</text>
  
  <!-- 서류가방 아이콘 -->
  <rect x="810" y="265" width="20" height="15" fill="#6b7280" rx="2" ry="2" />
  <rect x="815" y="260" width="10" height="5" fill="#6b7280" rx="1" ry="1" />
  <circle cx="825" cy="267" r="2" fill="#374151" />
  <text x="820" y="300" font-family="Arial, sans-serif" font-size="10" text-anchor="middle" fill="#64748b">유지보수</text>
  <text x="820" y="315" font-family="Arial, sans-serif" font-size="10" text-anchor="middle" fill="#64748b">교육 관련</text>
  
  <!-- 비교 데이터 섹션 -->
  <rect x="50" y="380" width="900" height="150" fill="#f8fafc" stroke="#cbd5e1" stroke-width="2" rx="15" ry="15" />
  <text x="500" y="415" font-family="Arial, sans-serif" font-size="20" font-weight="bold" text-anchor="middle" fill="#374151">📊 네이버그리드 vs 기존 방식 비교</text>
  
  <!-- 기존 방식 -->
  <rect x="80" y="440" width="180" height="80" fill="#fef2f2" stroke="#dc2626" stroke-width="2" rx="8" ry="8" />
  <text x="170" y="460" font-family="Arial, sans-serif" font-size="14" font-weight="bold" text-anchor="middle" fill="#dc2626">기존 방식</text>
  <text x="170" y="480" font-family="Arial, sans-serif" font-size="11" text-anchor="middle" fill="#7f1d1d">전자기기 → 매립지</text>
  <text x="170" y="495" font-family="Arial, sans-serif" font-size="11" text-anchor="middle" fill="#7f1d1d">신규 기기 구매</text>
  <text x="170" y="510" font-family="Arial, sans-serif" font-size="11" text-anchor="middle" fill="#7f1d1d">환경 오염 + 비용 부담</text>
  
  <!-- 화살표 -->
  <path d="M280 480 L320 480 L315 475 M320 480 L315 485" stroke="#7c3aed" stroke-width="3" fill="none" />
  <text x="300" y="470" font-family="Arial, sans-serif" font-size="12" font-weight="bold" text-anchor="middle" fill="#7c3aed">vs</text>
  
  <!-- 네이버그리드 방식 -->
  <rect x="340" y="440" width="180" height="80" fill="#f0fdf4" stroke="#22c55e" stroke-width="2" rx="8" ry="8" />
  <text x="430" y="460" font-family="Arial, sans-serif" font-size="14" font-weight="bold" text-anchor="middle" fill="#22c55e">네이버그리드</text>
  <text x="430" y="480" font-family="Arial, sans-serif" font-size="11" text-anchor="middle" fill="#166534">전자기기 → 재활용</text>
  <text x="430" y="495" font-family="Arial, sans-serif" font-size="11" text-anchor="middle" fill="#166534">커뮤니티 자원화</text>
  <text x="430" y="510" font-family="Arial, sans-serif" font-size="11" text-anchor="middle" fill="#166534">환경 보호 + 비용 절감</text>
  
  <!-- 결과 화살표 -->
  <path d="M540 480 L580 480 L575 475 M580 480 L575 485" stroke="#7c3aed" stroke-width="3" fill="none" />
  <text x="560" y="470" font-family="Arial, sans-serif" font-size="12" font-weight="bold" text-anchor="middle" fill="#7c3aed">결과</text>
  
  <!-- 최종 결과 -->
  <rect x="600" y="440" width="280" height="80" fill="#f0f9ff" stroke="#3b82f6" stroke-width="2" rx="8" ry="8" />
  <text x="740" y="460" font-family="Arial, sans-serif" font-size="14" font-weight="bold" text-anchor="middle" fill="#3b82f6">혁신적 순환경제</text>
  <text x="620" y="480" font-family="Arial, sans-serif" font-size="11" text-anchor="start" fill="#1e40af">✓ 폐기물 18톤 감소</text>
  <text x="620" y="495" font-family="Arial, sans-serif" font-size="11" text-anchor="start" fill="#1e40af">✓ 5.4억원 비용 절감</text>
  <text x="620" y="510" font-family="Arial, sans-serif" font-size="11" text-anchor="start" fill="#1e40af">✓ 1,800명 디지털 접근 개선</text>
  <text x="780" y="480" font-family="Arial, sans-serif" font-size="11" text-anchor="start" fill="#1e40af">✓ CO₂ 6.3톤 절약</text>
  <text x="780" y="495" font-family="Arial, sans-serif" font-size="11" text-anchor="start" fill="#1e40af">✓ 15개 일자리 창출</text>
  <text x="780" y="510" font-family="Arial, sans-serif" font-size="11" text-anchor="start" fill="#1e40af">✓ 지역사회 연결 강화</text>
  
  <!-- 5년 누적 효과 -->
  <rect x="50" y="550" width="900" height="130" fill="#fafafa" stroke="#9ca3af" stroke-width="2" rx="15" ry="15" />
  <text x="500" y="585" font-family="Arial, sans-serif" font-size="20" font-weight="bold" text-anchor="middle" fill="#374151">🚀 5년 누적 효과 예상</text>
  
  <rect x="100" y="600" width="150" height="60" fill="#f0fdf4" stroke="#22c55e" stroke-width="1" rx="5" ry="5" />
  <text x="175" y="620" font-family="Arial, sans-serif" font-size="16" font-weight="bold" text-anchor="middle" fill="#166534">90톤</text>
  <text x="175" y="640" font-family="Arial, sans-serif" font-size="12" text-anchor="middle" fill="#166534">전자폐기물 감소</text>
  <text x="175" y="655" font-family="Arial, sans-serif" font-size="10" text-anchor="middle" fill="#22c55e">트럭 9대분</text>
  
  <rect x="270" y="600" width="150" height="60" fill="#f0f9ff" stroke="#3b82f6" stroke-width="1" rx="5" ry="5" />
  <text x="345" y="620" font-family="Arial, sans-serif" font-size="16" font-weight="bold" text-anchor="middle" fill="#1e40af">31.5톤</text>
  <text x="345" y="640" font-family="Arial, sans-serif" font-size="12" text-anchor="middle" fill="#1e40af">CO₂ 절약</text>
  <text x="345" y="655" font-family="Arial, sans-serif" font-size="10" text-anchor="middle" fill="#3b82f6">숲 1개 조성</text>
  
  <rect x="440" y="600" width="150" height="60" fill="#fffbeb" stroke="#f59e0b" stroke-width="1" rx="5" ry="5" />
  <text x="515" y="620" font-family="Arial, sans-serif" font-size="16" font-weight="bold" text-anchor="middle" fill="#92400e">26억원</text>
  <text x="515" y="640" font-family="Arial, sans-serif" font-size="12" text-anchor="middle" fill="#92400e">경제 효과</text>
  <text x="515" y="655" font-family="Arial, sans-serif" font-size="10" text-anchor="middle" fill="#f59e0b">지역 경제 활성화</text>
  
  <rect x="610" y="600" width="150" height="60" fill="#fdf2f8" stroke="#ec4899" stroke-width="1" rx="5" ry="5" />
  <text x="685" y="620" font-family="Arial, sans-serif" font-size="16" font-weight="bold" text-anchor="middle" fill="#be185d">9,000명</text>
  <text x="685" y="640" font-family="Arial, sans-serif" font-size="12" text-anchor="middle" fill="#be185d">교육 수혜자</text>
  <text x="685" y="655" font-family="Arial, sans-serif" font-size="10" text-anchor="middle" fill="#ec4899">디지털 역량 강화</text>
  
  <rect x="780" y="600" width="150" height="60" fill="#f3f4f6" stroke="#6b7280" stroke-width="1" rx="5" ry="5" />
  <text x="855" y="620" font-family="Arial, sans-serif" font-size="16" font-weight="bold" text-anchor="middle" fill="#374151">75개</text>
  <text x="855" y="640" font-family="Arial, sans-serif" font-size="12" text-anchor="middle" fill="#374151">확산 지역</text>
  <text x="855" y="655" font-family="Arial, sans-serif" font-size="10" text-anchor="middle" fill="#6b7280">전국 네트워크</text>
  
  <!-- 푸터 -->
  <text x="500" y="695" font-family="Arial, sans-serif" font-size="12" text-anchor="middle" fill="#9ca3af">2025 순환경제 아이디어 공모전 | NeighborGrid: 지속가능한 디지털 미래를 위한 혁신</text>
</svg>