<svg viewBox="0 0 800 600" xmlns="http://www.w3.org/2000/svg">
  <!-- 배경 -->
  <rect x="0" y="0" width="800" height="600" fill="#f8fafc" />
  
  <!-- 제목 -->
  <text x="400" y="40" font-family="Arial, sans-serif" font-size="24" font-weight="bold" text-anchor="middle" fill="#1f2937">모듈러 랙 시스템 프로토타입</text>
  
  <!-- 메인 랙 프레임 -->
  <rect x="100" y="80" width="600" height="480" rx="10" ry="10" fill="#e5e7eb" stroke="#374151" stroke-width="3" />
  
  <!-- 랙 내부 구조선 -->
  <line x1="120" y1="100" x2="680" y2="100" stroke="#9ca3af" stroke-width="1" />
  <line x1="120" y1="540" x2="680" y2="540" stroke="#9ca3af" stroke-width="1" />
  <line x1="120" y1="100" x2="120" y2="540" stroke="#9ca3af" stroke-width="1" />
  <line x1="680" y1="100" x2="680" y2="540" stroke="#9ca3af" stroke-width="1" />
  
  <!-- 슬롯 1: 데스크톱 PC -->
  <rect x="140" y="120" width="240" height="80" rx="5" ry="5" fill="#3b82f6" stroke="#1e40af" stroke-width="2" />
  <text x="260" y="145" font-family="Arial, sans-serif" font-size="12" font-weight="bold" text-anchor="middle" fill="white">데스크톱 PC</text>
  <text x="260" y="160" font-family="Arial, sans-serif" font-size="10" text-anchor="middle" fill="#bfdbfe">Core i5, 8GB RAM</text>
  <text x="260" y="175" font-family="Arial, sans-serif" font-size="10" text-anchor="middle" fill="#bfdbfe">2015년 모델</text>
  <circle cx="350" cy="180" r="8" fill="#22c55e" />
  <text x="365" y="185" font-family="Arial, sans-serif" font-size="8" fill="#15803d">활성</text>
  
  <!-- 슬롯 2: 노트북 -->
  <rect x="400" y="120" width="180" height="60" rx="5" ry="5" fill="#8b5cf6" stroke="#7c3aed" stroke-width="2" />
  <text x="490" y="140" font-family="Arial, sans-serif" font-size="12" font-weight="bold" text-anchor="middle" fill="white">노트북</text>
  <text x="490" y="155" font-family="Arial, sans-serif" font-size="10" text-anchor="middle" fill="#ddd6fe">i3, 4GB RAM</text>
  <text x="490" y="170" font-family="Arial, sans-serif" font-size="10" text-anchor="middle" fill="#ddd6fe">2017년</text>
  <circle cx="560" cy="160" r="8" fill="#22c55e" />
  
  <!-- 슬롯 3: 태블릿들 -->
  <rect x="140" y="220" width="100" height="60" rx="5" ry="5" fill="#f59e0b" stroke="#d97706" stroke-width="2" />
  <text x="190" y="240" font-family="Arial, sans-serif" font-size="11" font-weight="bold" text-anchor="middle" fill="white">태블릿</text>
  <text x="190" y="255" font-family="Arial, sans-serif" font-size="9" text-anchor="middle" fill="#fef3c7">iPad Air</text>
  <text x="190" y="270" font-family="Arial, sans-serif" font-size="9" text-anchor="middle" fill="#fef3c7">2016년</text>
  <circle cx="220" cy="260" r="6" fill="#22c55e" />
  
  <rect x="260" y="220" width="100" height="60" rx="5" ry="5" fill="#f59e0b" stroke="#d97706" stroke-width="2" />
  <text x="310" y="240" font-family="Arial, sans-serif" font-size="11" font-weight="bold" text-anchor="middle" fill="white">태블릿</text>
  <text x="310" y="255" font-family="Arial, sans-serif" font-size="9" text-anchor="middle" fill="#fef3c7">Galaxy Tab</text>
  <text x="310" y="270" font-family="Arial, sans-serif" font-size="9" text-anchor="middle" fill="#fef3c7">2018년</text>
  <circle cx="340" cy="260" r="6" fill="#ef4444" />
  
  <!-- 슬롯 4: 스마트폰 충전 스테이션 -->
  <rect x="380" y="220" width="200" height="40" rx="5" ry="5" fill="#10b981" stroke="#059669" stroke-width="2" />
  <text x="480" y="235" font-family="Arial, sans-serif" font-size="11" font-weight="bold" text-anchor="middle" fill="white">스마트폰 충전 스테이션</text>
  <text x="480" y="250" font-family="Arial, sans-serif" font-size="9" text-anchor="middle" fill="#d1fae5">갤럭시 S8, S9, iPhone 7, 8 등</text>
  
  <!-- 작은 스마트폰 아이콘들 -->
  <rect x="390" y="250" width="20" height="30" rx="3" ry="3" fill="#34d399" stroke="#10b981" stroke-width="1" />
  <rect x="420" y="250" width="20" height="30" rx="3" ry="3" fill="#34d399" stroke="#10b981" stroke-width="1" />
  <rect x="450" y="250" width="20" height="30" rx="3" ry="3" fill="#34d399" stroke="#10b981" stroke-width="1" />
  <rect x="480" y="250" width="20" height="30" rx="3" ry="3" fill="#34d399" stroke="#10b981" stroke-width="1" />
  <rect x="510" y="250" width="20" height="30" rx="3" ry="3" fill="#34d399" stroke="#10b981" stroke-width="1" />
  <rect x="540" y="250" width="20" height="30" rx="3" ry="3" fill="#34d399" stroke="#10b981" stroke-width="1" />
  
  <!-- 슬롯 5: 구형 PC -->
  <rect x="140" y="300" width="200" height="70" rx="5" ry="5" fill="#6366f1" stroke="#4338ca" stroke-width="2" />
  <text x="240" y="320" font-family="Arial, sans-serif" font-size="12" font-weight="bold" text-anchor="middle" fill="white">구형 PC</text>
  <text x="240" y="335" font-family="Arial, sans-serif" font-size="10" text-anchor="middle" fill="#c7d2fe">Pentium 4, 2GB RAM</text>
  <text x="240" y="350" font-family="Arial, sans-serif" font-size="10" text-anchor="middle" fill="#c7d2fe">2012년 모델</text>
  <text x="240" y="365" font-family="Arial, sans-serif" font-size="10" text-anchor="middle" fill="#c7d2fe">경량 작업용</text>
  <circle cx="320" cy="350" r="8" fill="#22c55e" />
  
  <!-- 슬롯 6: 빈 공간 (확장 가능) -->
  <rect x="360" y="300" width="220" height="70" rx="5" ry="5" fill="none" stroke="#d1d5db" stroke-width="2" stroke-dasharray="10,5" />
  <text x="470" y="335" font-family="Arial, sans-serif" font-size="12" text-anchor="middle" fill="#6b7280">확장 가능 슬롯</text>
  <text x="470" y="350" font-family="Arial, sans-serif" font-size="10" text-anchor="middle" fill="#9ca3af">새로운 기기 추가 대기</text>
  
  <!-- 슬롯 7: 미니 PC들 -->
  <rect x="140" y="390" width="120" height="50" rx="5" ry="5" fill="#ec4899" stroke="#db2777" stroke-width="2" />
  <text x="200" y="410" font-family="Arial, sans-serif" font-size="11" font-weight="bold" text-anchor="middle" fill="white">미니 PC #1</text>
  <text x="200" y="425" font-family="Arial, sans-serif" font-size="9" text-anchor="middle" fill="#fce7f3">NUC, 4GB</text>
  <text x="200" y="435" font-family="Arial, sans-serif" font-size="9" text-anchor="middle" fill="#fce7f3">2016년</text>
  <circle cx="240" cy="420" r="6" fill="#22c55e" />
  
  <rect x="280" y="390" width="120" height="50" rx="5" ry="5" fill="#ec4899" stroke="#db2777" stroke-width="2" />
  <text x="340" y="410" font-family="Arial, sans-serif" font-size="11" font-weight="bold" text-anchor="middle" fill="white">미니 PC #2</text>
  <text x="340" y="425" font-family="Arial, sans-serif" font-size="9" text-anchor="middle" fill="#fce7f3">라즈베리파이</text>
  <text x="340" y="435" font-family="Arial, sans-serif" font-size="9" text-anchor="middle" fill="#fce7f3">2019년</text>
  <circle cx="380" cy="420" r="6" fill="#22c55e" />
  
  <!-- 슬롯 8: 네트워크 장비 -->
  <rect x="420" y="390" width="160" height="50" rx="5" ry="5" fill="#0ea5e9" stroke="#0284c7" stroke-width="2" />
  <text x="500" y="410" font-family="Arial, sans-serif" font-size="11" font-weight="bold" text-anchor="middle" fill="white">네트워크 허브</text>
  <text x="500" y="425" font-family="Arial, sans-serif" font-size="9" text-anchor="middle" fill="#bae6fd">24포트 스위치</text>
  <text x="500" y="435" font-family="Arial, sans-serif" font-size="9" text-anchor="middle" fill="#bae6fd">재활용 장비</text>
  
  <!-- LED 상태 표시등들 -->
  <circle cx="420" cy="410" r="3" fill="#22c55e" />
  <circle cx="430" cy="410" r="3" fill="#22c55e" />
  <circle cx="440" cy="410" r="3" fill="#ef4444" />
  <circle cx="450" cy="410" r="3" fill="#22c55e" />
  <circle cx="460" cy="410" r="3" fill="#22c55e" />
  
  <!-- 냉각 시스템 -->
  <rect x="600" y="120" width="60" height="320" rx="5" ry="5" fill="#64748b" stroke="#475569" stroke-width="2" />
  <text x="630" y="140" font-family="Arial, sans-serif" font-size="10" font-weight="bold" text-anchor="middle" fill="white">냉각</text>
  <text x="630" y="155" font-family="Arial, sans-serif" font-size="10" font-weight="bold" text-anchor="middle" fill="white">시스템</text>
  
  <!-- 냉각팬 표시 -->
  <circle cx="630" cy="200" r="20" fill="#94a3b8" stroke="#64748b" stroke-width="1" />
  <path d="M620 190 L630 200 L640 190 M620 210 L630 200 L640 210" stroke="#475569" stroke-width="2" fill="none" />
  
  <circle cx="630" cy="260" r="20" fill="#94a3b8" stroke="#64748b" stroke-width="1" />
  <path d="M620 250 L630 260 L640 250 M620 270 L630 260 L640 270" stroke="#475569" stroke-width="2" fill="none" />
  
  <circle cx="630" cy="320" r="20" fill="#94a3b8" stroke="#64748b" stroke-width="1" />
  <path d="M620 310 L630 320 L640 310 M620 330 L630 320 L640 330" stroke="#475569" stroke-width="2" fill="none" />
  
  <!-- 온도 센서 -->
  <rect x="610" y="380" width="40" height="20" rx="3" ry="3" fill="#f59e0b" stroke="#d97706" stroke-width="1" />
  <text x="630" y="392" font-family="Arial, sans-serif" font-size="8" text-anchor="middle" fill="white">28°C</text>
  
  <!-- 전원 관리 표시 -->
  <rect x="140" y="460" width="460" height="60" rx="5" ry="5" fill="#1f2937" stroke="#374151" stroke-width="2" />
  <text x="360" y="480" font-family="Arial, sans-serif" font-size="12" font-weight="bold" text-anchor="middle" fill="white">전원 관리 시스템</text>
  
  <!-- 전원 상태 표시 -->
  <text x="160" y="515" font-family="Arial, sans-serif" font-size="10" fill="#d1d5db">총 소비전력: 420W</text>
  <text x="280" y="515" font-family="Arial, sans-serif" font-size="10" fill="#d1d5db">효율: 89%</text>
  <text x="400" y="515" font-family="Arial, sans-serif" font-size="10" fill="#d1d5db">배터리 백업: 2시간</text>
  <text x="520" y="515" font-family="Arial, sans-serif" font-size="10" fill="#d1d5db">태양광 연결: ON</text>
  
  <!-- 전원 버튼 -->
  <circle cx="550" cy="490" r="12" fill="#22c55e" stroke="#16a34a" stroke-width="2" />
  <path d="M545 490 L555 490 M550 485 L550 495" stroke="white" stroke-width="2" />
  
  <!-- 케이블 연결 표시 -->
  <path d="M100 300 Q80 320 100 340" stroke="#6b7280" stroke-width="3" fill="none" />
  <text x="40" y="325" font-family="Arial, sans-serif" font-size="10" fill="#6b7280">전원</text>
  
  <path d="M100 360 Q80 380 100 400" stroke="#3b82f6" stroke-width="3" fill="none" />
  <text x="30" y="385" font-family="Arial, sans-serif" font-size="10" fill="#3b82f6">네트워크</text>
  
  <!-- 확장성 화살표 -->
  <path d="M710 200 L730 200 L725 195 M730 200 L725 205" stroke="#059669" stroke-width="2" fill="none" />
  <text x="735" y="205" font-family="Arial, sans-serif" font-size="10" fill="#059669">확장 모듈</text>
  <text x="735" y="220" font-family="Arial, sans-serif" font-size="10" fill="#059669">연결 가능</text>
  
  <!-- 범례 -->
  <rect x="30" y="480" width="15" height="15" fill="#22c55e" />
  <text x="50" y="492" font-family="Arial, sans-serif" font-size="10" fill="#374151">활성 상태</text>
  
  <rect x="30" y="500" width="15" height="15" fill="#ef4444" />
  <text x="50" y="512" font-family="Arial, sans-serif" font-size="10" fill="#374151">오프라인</text>
  
  <rect x="30" y="520" width="15" height="15" fill="#f59e0b" />
  <text x="50" y="532" font-family="Arial, sans-serif" font-size="10" fill="#374151">대기 모드</text>
</svg>